<?xml version="1.0" encoding="UTF-8" standalone="no"?>
<!-- Created with Inkscape (http://www.inkscape.org/) -->

<svg
   width="512"
   height="512"
   viewBox="0 0 135.46666 135.46667"
   version="1.1"
   id="svg1"
   xml:space="preserve"
   inkscape:version="1.4 (e7c3feb100, 2024-10-09)"
   sodipodi:docname="wishlist.svg"
   inkscape:export-filename="icon-192x192.png"
   inkscape:export-xdpi="36"
   inkscape:export-ydpi="36"
   xmlns:inkscape="http://www.inkscape.org/namespaces/inkscape"
   xmlns:sodipodi="http://sodipodi.sourceforge.net/DTD/sodipodi-0.dtd"
   xmlns:xlink="http://www.w3.org/1999/xlink"
   xmlns="http://www.w3.org/2000/svg"
   xmlns:svg="http://www.w3.org/2000/svg"><sodipodi:namedview
     id="namedview1"
     pagecolor="#ffffff"
     bordercolor="#000000"
     borderopacity="0.25"
     inkscape:showpageshadow="2"
     inkscape:pageopacity="0.0"
     inkscape:pagecheckerboard="0"
     inkscape:deskcolor="#d1d1d1"
     inkscape:document-units="mm"
     inkscape:zoom="1.18"
     inkscape:cx="165.25424"
     inkscape:cy="281.77966"
     inkscape:window-width="1618"
     inkscape:window-height="1398"
     inkscape:window-x="0"
     inkscape:window-y="0"
     inkscape:window-maximized="0"
     inkscape:current-layer="layer1"
     inkscape:export-bgcolor="#ffffff00" /><defs
     id="defs1"><linearGradient
       id="linearGradient7"
       inkscape:collect="always"><stop
         style="stop-color:#008000;stop-opacity:1;"
         offset="0"
         id="stop7" /><stop
         style="stop-color:#003680;stop-opacity:1;"
         offset="1"
         id="stop8" /></linearGradient><linearGradient
       inkscape:collect="always"
       xlink:href="#linearGradient7"
       id="linearGradient8"
       x1="61.268528"
       y1="158.63698"
       x2="171.543"
       y2="158.63698"
       gradientUnits="userSpaceOnUse"
       gradientTransform="matrix(1.2285464,0,0,1.2285464,-14.008003,-17.897141)" /></defs><g
     inkscape:label="Layer 1"
     inkscape:groupmode="layer"
     id="layer1"
     transform="translate(-61.268527,-109.26243)"><path
       style="fill:url(#linearGradient8);stroke-width:1.22855"
       d="m 108.54251,237.58719 c -2.07613,-0.47513 -8.27829,-2.64962 -11.193251,-3.92437 -3.818137,-1.66974 -3.860412,-1.56277 0.970601,-2.45592 7.56535,-1.39867 16.34684,-4.86743 26.63782,-10.5222 11.71015,-6.43457 21.0663,-12.80756 30.85659,-21.01818 12.41042,-10.40795 19.93566,-19.1686 24.59883,-28.63711 3.06699,-6.2275 3.82146,-9.35562 3.84156,-15.92759 0.0135,-4.42011 -0.0952,-5.6156 -0.72445,-7.9638 -2.3296,-8.69382 -7.78458,-14.72348 -15.72604,-17.38277 -3.31039,-1.10852 -9.31777,-1.48807 -13.06053,-0.82516 -9.55453,1.69225 -17.22733,7.95476 -22.30835,18.20793 -1.07912,2.1776 -1.88717,2.92547 -3.16083,2.92547 -1.42143,0 -2.32488,-0.91344 -3.79939,-3.84145 l -1.15432,-2.29214 0.77503,-2.05279 c 2.50038,-6.62261 8.9687,-14.54999 15.55303,-19.06131 7.1129,-4.87347 15.82579,-7.16541 23.94702,-6.2993 8.74639,0.93279 16.00993,4.2671 21.66003,9.94298 4.57074,4.59161 7.64033,9.99943 9.31487,16.41044 0.85074,3.25706 1.00846,4.52317 1.13906,9.1439 0.2424,8.57597 -0.90272,13.48324 -5.12,21.94106 -6.12483,12.2834 -18.53487,25.72665 -35.77109,38.74918 -14.37819,10.86318 -30.36078,19.95902 -41.26271,23.48298 -4.41194,1.42613 -5.14954,1.59786 -6.01348,1.40015 z m 35.26113,-1.34889 c -5.24855,-1.74933 -12.7532,-5.14947 -12.57113,-5.69562 0.0646,-0.19399 1.12935,-0.91423 2.36599,-1.60056 1.23665,-0.68632 3.43877,-1.96771 4.89362,-2.8475 l 2.64516,-1.59961 2.21651,0.99448 c 6.61664,2.96869 12.85245,4.94755 18.42195,5.84601 1.38232,0.223 2.51334,0.53018 2.51334,0.68267 0,0.644 -11.30791,4.92885 -14.78991,5.60426 -0.68381,0.13264 -2.38548,-0.2809 -5.69553,-1.38413 z M 111.81631,219.29582 C 93.272942,207.06969 78.301817,192.89204 69.78852,179.49559 62.721492,168.37496 60.1155,158.02882 61.720128,147.46308 c 1.263658,-8.32058 4.373674,-14.7923 9.876235,-20.55177 5.029152,-5.26394 10.012762,-8.06057 17.657759,-9.90891 3.650479,-0.88257 12.532028,-0.79191 15.982648,0.16314 6.03623,1.67069 11.1178,4.27502 15.60809,7.99924 2.51565,2.08645 7.36335,7.15319 7.36335,7.69604 0,0.10786 -0.72323,1.39951 -1.60717,2.87024 -0.88394,1.47075 -1.94369,3.54193 -2.35498,4.60263 -0.41129,1.06068 -0.82318,1.92854 -0.91534,1.92854 -0.0922,0 -0.94466,-1.01903 -1.8945,-2.2645 -4.23417,-5.55206 -10.64557,-9.63235 -17.44445,-11.10186 -2.85853,-0.61783 -8.962841,-0.51557 -11.539385,0.19329 -6.997849,1.92529 -12.436636,6.33927 -15.574109,12.63953 -1.720407,3.45472 -2.604346,7.0052 -2.848729,11.44237 -0.453296,8.23049 1.822782,15.30555 7.888852,24.52194 3.071402,4.66645 5.97576,8.1435 11.009089,13.17984 8.861422,8.86674 20.735412,18.05494 31.946932,24.72083 1.47384,0.87627 2.63503,1.7299 2.58045,1.89693 -0.11032,0.33767 -9.27522,5.32892 -9.84767,5.36311 -0.19903,0.0122 -2.80493,-1.58917 -5.79089,-3.55789 z m 14.9988,-15.79985 c -0.12769,-0.12771 -0.23215,-5.02587 -0.23215,-10.88482 V 181.9585 l -1.54401,-0.21847 c -4.12962,-0.5843 -6.12818,-2.80962 -4.9149,-5.47251 0.52784,-1.1585 1.96796,-1.68874 3.2002,-1.17833 1.07088,0.44357 3.119,2.52936 4.0783,4.15333 0.34142,0.57797 0.70397,1.05088 0.80566,1.05088 0.10172,0 0.45787,-0.47539 0.79153,-1.05641 2.01824,-3.51457 4.15871,-4.95194 5.97529,-4.01256 1.08101,0.55903 1.35951,1.09035 1.35951,2.5939 0,1.90378 -3.24676,4.10033 -6.06077,4.10033 h -0.75659 l -0.0857,10.80801 -0.0857,10.80801 -1.14929,0.0967 c -0.63212,0.0532 -1.25378,-0.007 -1.38149,-0.13545 z m 0.0929,-22.80206 c 0,-0.77499 -1.7158,-2.64409 -2.60688,-2.83981 -1.614,-0.35449 -2.65322,1.1209 -1.47707,2.09699 0.91016,0.75537 4.08395,1.33264 4.08395,0.74282 z m 6.23351,-0.61508 c 0.99045,-0.89633 0.55225,-2.40173 -0.69135,-2.37503 -0.85051,0.0183 -2.94174,2.17307 -2.94174,3.03116 0,0.47419 2.97849,-0.0637 3.63309,-0.65613 z m -0.62636,23.3576 -1.70652,-0.0983 v -6.95246 c 0,-3.82385 0.10971,-7.0171 0.2438,-7.09611 0.13407,-0.079 2.03843,-0.0674 4.2319,0.0257 l 3.9881,0.16934 -0.0875,7.00816 -0.0875,7.00814 -2.4379,0.0168 c -1.34085,0.01 -3.20583,-0.0272 -4.14443,-0.0813 z m -15.68379,-6.53875 c 0,-3.56096 0.0889,-6.70585 0.19731,-6.98864 0.16522,-0.43058 0.85217,-0.51417 4.22568,-0.51417 h 4.02837 v 6.98864 6.98865 h -4.22568 -4.22568 z m 23.40381,-6.49439 c 0,-1.08848 0.11339,-1.30436 0.73137,-1.39212 0.68173,-0.0968 0.74604,-0.31339 0.94765,-3.19187 0.11893,-1.69841 0.15245,-3.32264 0.0744,-3.60942 -0.11007,-0.40476 -0.77211,-0.56986 -2.95872,-0.73794 -1.54927,-0.11905 -2.87052,-0.2702 -2.93615,-0.33582 -0.0656,-0.0656 0.18058,-0.61118 0.54711,-1.21238 0.95521,-1.5668 0.88664,-3.54728 -0.16614,-4.79845 -0.55815,-0.66332 -0.80062,-1.29125 -0.73136,-1.894 l 0.10356,-0.90167 h 5.85095 5.85096 v 9.58904 9.58906 l -3.65685,0.0919 -3.65684,0.0919 z m 8.99312,1.05026 c -0.11917,-0.11917 -0.21669,-6.70151 -0.21669,-14.62736 v -14.41068 h -0.74435 c -1.38949,0 -4.61383,-1.00031 -5.85067,-1.81509 -1.85279,-1.22055 -2.5713,-2.56688 -2.4038,-4.50414 0.11203,-1.29567 0.33632,-1.7824 1.1609,-2.51915 2.26618,-2.02484 4.98893,-0.67869 7.99368,3.95216 1.04773,1.61475 1.94876,2.9359 2.0023,2.9359 0.0536,0 0.63112,-0.84108 1.28356,-1.86906 2.52114,-3.97235 4.71423,-5.93221 6.6382,-5.93221 1.09833,0 2.54871,0.91361 3.07931,1.93969 0.84854,1.64089 0.64126,3.39481 -0.56334,4.7668 -1.30214,1.48307 -2.98261,2.25065 -6.02875,2.7537 l -2.34136,0.38667 v 14.57974 14.57972 h -1.89614 c -1.04288,0 -1.99366,-0.0975 -2.11285,-0.21669 z m 0.4334,-30.61454 c 0,-0.59093 -2.02326,-3.02825 -3.01657,-3.63389 -1.27844,-0.7795 -1.79423,-0.80014 -2.565,-0.10259 -1.23133,1.11434 -0.24579,3.03938 1.88224,3.67654 1.23629,0.37015 3.69933,0.4101 3.69933,0.0599 z m 6.14683,-0.0728 c 2.90825,-0.62372 4.03525,-2.14583 2.6296,-3.55148 -1.06102,-1.06103 -1.9278,-0.80317 -3.80097,1.13077 -2.56195,2.64508 -2.30932,3.16718 1.17137,2.42071 z m -1.12391,30.49361 c -0.0867,-0.22575 -0.11856,-4.57741 -0.0709,-9.67032 l 0.0865,-9.25982 h 5.68844 5.68842 l 0.0872,7.90499 0.0871,7.90499 -1.80814,1.76533 -1.80817,1.76532 h -3.89628 c -2.8383,0 -3.93908,-0.11143 -4.05384,-0.41049 z m -62.025658,-2.46633 c -0.480804,-0.53129 -0.534086,-1.45092 -0.4567,-7.88253 l 0.08759,-7.28107 4.180363,-0.0913 c 2.804783,-0.0612 4.328975,0.0321 4.632005,0.28361 0.36192,0.30036 0.45165,1.8844 0.45165,7.97375 v 7.59894 h -4.175318 c -3.649912,0 -4.243803,-0.0756 -4.719619,-0.60144 z m 10.195128,-11.2482 v -11.8497 l -1.21894,-0.19394 c -2.692173,-0.42835 -4.09537,-0.96135 -5.150372,-1.95635 -0.918486,-0.86624 -1.106907,-1.27682 -1.106907,-2.41204 0,-1.07869 0.200989,-1.56908 0.950157,-2.31824 0.522587,-0.52259 1.261226,-0.95017 1.641411,-0.95017 1.587147,0 3.670071,1.77009 5.475991,4.65352 l 0.98048,1.56552 1.28645,-1.89057 c 1.59881,-2.34961 2.73015,-3.49074 3.96988,-4.00425 2.96761,-1.22922 5.1897,2.31722 3.04725,4.86337 -1.14326,1.35868 -2.52582,2.02663 -4.67455,2.25836 l -1.78778,0.1928 -0.0853,11.9457 -0.0853,11.94567 h -1.62125 -1.62128 z m 0.0381,-13.74821 c -0.17041,-0.31287 -0.83343,-1.0726 -1.47341,-1.68828 -1.0236,-0.98476 -1.27124,-1.08159 -2.05826,-0.80481 -0.650565,0.22878 -0.894665,0.53422 -0.894665,1.11944 0,0.99979 1.699545,1.94124 3.505755,1.94199 1.07318,4.4e-4 1.19081,-0.0721 0.92058,-0.56834 z m 6.09625,0.20959 c 1.28561,-0.44816 1.82198,-1.34403 1.34185,-2.24119 -0.56207,-1.05024 -1.7972,-0.80319 -3.25053,0.65012 -0.71512,0.71511 -1.30022,1.44648 -1.30022,1.62528 0,0.43417 1.9241,0.41368 3.2089,-0.0342 z m -1.50815,17.50577 0.087,-7.88252 h 4.55075 4.55074 v 3.90063 3.90063 l -1.1377,0.16252 -1.13767,0.16254 -0.0951,3.25053 c -0.0877,2.99599 -0.0402,3.29506 0.60485,3.81936 0.67509,0.54867 0.55434,0.56884 -3.40505,0.56884 h -4.10495 z m 7.72579,3.81937 v -2.76295 h 4.98414 c 2.74128,0 5.04509,0.0603 5.11958,0.13397 0.0744,0.0736 0.0878,1.31701 0.0294,2.76295 l -0.10603,2.62899 h -5.01358 -5.01355 z m 15.60253,0.009 v -2.77142 h 5.05146 5.05147 l -0.0944,2.6817 -0.0944,2.68169 -4.95705,0.0897 -4.95706,0.0897 z M 90.318351,172.06654 c -0.09312,-0.24275 -0.126492,-1.67086 -0.07409,-3.17354 0.08404,-2.40977 0.170079,-2.74649 0.729043,-2.8534 0.348575,-0.0667 2.877071,-0.0161 5.618903,0.11241 l 4.985143,0.23365 -0.093,2.97197 -0.093,2.97196 -5.451829,0.0892 c -4.354631,0.0712 -5.485889,3.3e-4 -5.621177,-0.35222 z m 17.086469,-2.65453 v -3.09587 h 5.53811 5.53809 l -0.0935,3.00673 -0.0935,3.00675 -5.44464,0.0891 -5.44464,0.0891 z m 26.32929,-2.45223 v -3.9071 l 6.90737,0.0878 6.90738,0.0878 0.0915,3.81937 0.0917,3.81937 h -6.99895 -6.99895 z m 20.95837,0.82958 c -0.1269,-1.69264 -0.13777,-3.44793 -0.0241,-3.90063 l 0.20661,-0.82311 h 6.81991 6.81991 v 3.90063 3.90063 h -6.79577 -6.79577 z"
       id="path2"
       sodipodi:nodetypes="ssssssscssssscsssssssssssssscssssssssssssssssssssssssscscscssssscssscccsccssssssssccsssccccscssscccccsssssssssscccccccssscssssssssssscccsssssssssssscscccccccscccsccsscsccccsssssscssssccccccsssssssssssscccccccccssccccscccccccccccccccsscscccssscccccccccccccccccccccccccccc" /></g></svg>
